# xmcd
#
# Track frame offsets: 
#        183
#        17568
#        36715
#        60495
#        76308
#        86713
#        107903
#        126648
#        142043
#        161138
#        181010
#        202900
#
# Disc length: 2930 seconds
#
# Revision: 5
# Processed by: cddbd v1.5.2PL0 Copyright (c) Steve Scherf et al.
# Submitted via: ExactAudioCopy v0.95a4
#
DISCID=930b6c0c,a70b700c
DTITLE=Gerry Rafferty - Snakes And Ladders
DYEAR=1980
DGENRE=Rock
TTITLE0=The Royal Mile
TTITLE1=I Was A Boy Scout
TTITLE2=Welcome To Hollywood
TTITLE3=Wastin' Away
TTITLE4=Look At The Moon
TTITLE5=Bring It All Home
TTITLE6=The Garden Of England
TTITLE7=Johnny's Song
TTITLE8=Didn't I
TTITLE9=Syncopatin' Sandy
TTITLE10=Cafe Le Cabotin
TTITLE11=Don't Close The Door
EXTD=Produced by Hugh Murphy and Gerry Rafferty\nCDP 7 46609 2 YEAR: 1
EXTD=980 ID3G: 17
EXTT0=
EXTT1=
EXTT2=
EXTT3=
EXTT4=
EXTT5=
EXTT6=
EXTT7=
EXTT8=
EXTT9=
EXTT10=
EXTT11=
PLAYORDER=
